<?xml version="1.0" encoding="utf-8"?>
<!-- Generator: Adobe Illustrator 26.2.1, SVG Export Plug-In . SVG Version: 6.00 Build 0)  -->
<svg version="1.1" id="Capa_1" xmlns="http://www.w3.org/2000/svg" xmlns:xlink="http://www.w3.org/1999/xlink" x="0px" y="0px"
	 viewBox="0 0 32 32" style="enable-background:new 0 0 32 32;" xml:space="preserve">
<style type="text/css">
	.st0{fill:#231B71;}
</style>
<path class="st0" d="M4.41,20.23v-9.42c0-1.31,1.03-2.34,2.34-2.34c1.27,0,2.3,1.03,2.3,2.34v9.42c0,3.94,3.19,7.13,7.13,7.13
	c3.94,0,7.13-3.19,7.13-7.13v-9.42c0-1.31,1.03-2.34,2.34-2.34c1.27,0,2.3,1.03,2.3,2.34v9.42c0,6.52-5.3,11.77-11.77,11.77
	S4.41,26.75,4.41,20.23z"/>
<path class="st0" d="M20.5,9.77c-0.39,0-0.71-0.32-0.71-0.71V4.97c0-1.99-1.62-3.6-3.6-3.6s-3.6,1.62-3.6,3.6v4.08
	c0,0.39-0.32,0.71-0.71,0.71c-0.39,0-0.71-0.32-0.71-0.71V4.97c0-2.77,2.25-5.03,5.03-5.03s5.03,2.25,5.03,5.03v4.08
	C21.21,9.45,20.89,9.77,20.5,9.77z"/>
<path class="st0" d="M16.38,14.15c-0.05,0-0.1,0-0.15,0c-5.54-0.09-9.6-5.33-9.64-5.39l0.29-0.22c0.04,0.05,3.99,5.15,9.36,5.24
	c3.25,0.06,6.36-1.71,9.25-5.25l0.28,0.23C22.85,12.34,19.69,14.15,16.38,14.15z"/>
</svg>
